<svg id="Layer_1" data-name="Layer 1" xmlns="http://www.w3.org/2000/svg" viewBox="0 0 254.28 343.84"><defs><style>.cls-1{fill:#fbb040;}.cls-1,.cls-2,.cls-4{stroke:#231f20;}.cls-1,.cls-2,.cls-3,.cls-4{stroke-miterlimit:10;}.cls-2{fill:#8b5e3c;}.cls-3{fill:none;stroke:#a97c50;}.cls-4{fill:#a7a9ac;stroke-width:0.5px;}</style></defs><path class="cls-1" d="M69.12,166.77C91.73,205,40.42,483.3,40.42,483.3c41.74,21.73,211.31,8.4,211.31,8.4s-18.26-1.45-2.61-47.53,13-280,13-280" transform="translate(-39.86 -152.41)"/><polygon class="cls-2" points="249.65 26.7 200.45 20.98 5.66 26.7 10.65 11.76 5.66 0.55 72.42 5.04 176.54 2.4 249.65 0.55 253.76 9.02 249.65 26.7"/><path class="cls-2" d="M61,153" transform="translate(-39.86 -152.41)"/><path class="cls-2" d="M203,155.15" transform="translate(-39.86 -152.41)"/><path class="cls-2" d="M251.77,179.11" transform="translate(-39.86 -152.41)"/><path class="cls-3" d="M54.5,158.94s63.27,8.74,82.19,3c18.42-5.59,114.45-.56,115.08-.55,0,0,29.4,6,31.39-2.44" transform="translate(-39.86 -152.41)"/><path class="cls-3" d="M55.78,172.51c18.41-5.59,114.44-.57,115.07-.55" transform="translate(-39.86 -152.41)"/><path class="cls-3" d="M147.25,167.36c18.41-5.6,114.44-.57,115.07-.55" transform="translate(-39.86 -152.41)"/><path class="cls-3" d="M182.28,172.51c18.42-5.59,100.24,0,100.88,0" transform="translate(-39.86 -152.41)"/><circle class="cls-4" cx="38.54" cy="20.1" r="3.24"/><circle class="cls-4" cx="203.44" cy="9.01" r="3.24"/></svg>